<svg xmlns="http://www.w3.org/2000/svg" viewBox="0 0 48 48" width="48" height="48">
  <rect x="2" y="2" width="44" height="44" rx="6" fill="#FFF3E0"/>
  <path d="M16 12h16a2 2 0 0 1 2 2v20a2 2 0 0 1-2 2H16a2 2 0 0 1-2-2V14a2 2 0 0 1 2-2z" fill="#FF9900"/>
  <ellipse cx="24" cy="14" rx="10" ry="3" fill="#FF9900"/>
  <path d="M14 14v22c0 1.7 4.5 3 10 3s10-1.3 10-3V14" fill="#FF9900"/>
  <ellipse cx="24" cy="14" rx="10" ry="3" fill="#FFB84D"/>
  <ellipse cx="24" cy="22" rx="10" ry="3" fill="none" stroke="#fff" stroke-width="0.8" opacity="0.6"/>
  <ellipse cx="24" cy="30" rx="10" ry="3" fill="none" stroke="#fff" stroke-width="0.8" opacity="0.6"/>
  <text x="18.5" y="30" font-family="Arial,sans-serif" font-weight="bold" font-size="10" fill="#fff">S3</text>
</svg>