<svg xmlns="http://www.w3.org/2000/svg" viewBox="0 0 48 48" width="48" height="48">
  <rect x="2" y="2" width="44" height="44" rx="6" fill="#F3E6F3"/>
  <path d="M10 32c4-3 8 1 14-2s8 1 14-2v6c-6 3-8-1-14 2s-10-1-14 2v-6z" fill="#742774" opacity="0.4"/>
  <path d="M10 28c4-3 8 1 14-2s8 1 14-2v6c-6 3-8-1-14 2s-10-1-14 2v-6z" fill="#742774" opacity="0.65"/>
  <path d="M10 24c4-3 8 1 14-2s8 1 14-2v6c-6 3-8-1-14 2s-10-1-14 2v-6z" fill="#742774" opacity="0.9"/>
  <path d="M18 14h12l-2 8H20l-2-8z" fill="#742774"/>
  <path d="M22 14v-2a2 2 0 0 1 4 0v2" stroke="#742774" stroke-width="1.5" fill="none"/>
</svg>